# xmcd
#
# Track frame offsets: 
#        150
#        14474
#        27949
#        43035
#        57599
#        77902
#        93379
#        111263
#        124065
#        132508
#        150422
#        162474
#        179148
#        192452
#        224542
#        241644
#
# Disc length: 3378 seconds
#
# Revision: 0
# Processed by: cddbd v1.5.2PL0 Copyright (c) Steve Scherf et al.
# Submitted via: ExactAudioCopyFreeDBPlugin 1.0
#
DISCID=e60d3010
DTITLE=Gordon Blue - NO COUNTRY FOR OLD MAN
DYEAR=1900
DGENRE=Blues
TTITLE0=NO PLACE TO GO
TTITLE1=JO JO
TTITLE2=THE BREEZ
TTITLE3=9 POND HAMMER
TTITLE4=CORRINE - CORRINA
TTITLE5=BROKEN HEARTS
TTITLE6=CRY BABY
TTITLE7=MYSTERY TRAIN
TTITLE8=MARIE MARIE
TTITLE9=TROUBLE IN MIND
TTITLE10=HEARTBEAT
TTITLE11=900 MILES
TTITLE12=WONDERWALL
TTITLE13=HIGH NOON
TTITLE14=Bonus Track
TTITLE15=Bonus Track
EXTD=
EXTT0=
EXTT1=
EXTT2=
EXTT3=
EXTT4=
EXTT5=
EXTT6=
EXTT7=
EXTT8=
EXTT9=
EXTT10=
EXTT11=
EXTT12=
EXTT13=
EXTT14=
EXTT15=
PLAYORDER=
